<svg width="17" height="17" viewBox="0 0 17 17" fill="none" xmlns="http://www.w3.org/2000/svg">
<path d="M1.80775 17C1.30258 17 0.875 16.825 0.525 16.475C0.175 16.125 0 15.6974 0 15.1923V1.80775C0 1.30258 0.175 0.875 0.525 0.525C0.875 0.175 1.30258 0 1.80775 0H7.75975C7.97242 0 8.15058 0.0718332 8.29425 0.2155C8.43775 0.359 8.5095 0.537167 8.5095 0.75C8.5095 0.962833 8.43775 1.141 8.29425 1.2845C8.15058 1.42817 7.97242 1.5 7.75975 1.5H1.80775C1.73075 1.5 1.66025 1.53208 1.59625 1.59625C1.53208 1.66025 1.5 1.73075 1.5 1.80775V15.1923C1.5 15.2692 1.53208 15.3398 1.59625 15.4038C1.66025 15.4679 1.73075 15.5 1.80775 15.5H7.75975C7.97242 15.5 8.15058 15.5718 8.29425 15.7155C8.43775 15.859 8.5095 16.0372 8.5095 16.25C8.5095 16.4628 8.43775 16.641 8.29425 16.7845C8.15058 16.9282 7.97242 17 7.75975 17H1.80775ZM14.1173 9.25H6.34625C6.13342 9.25 5.95517 9.17817 5.8115 9.0345C5.668 8.891 5.59625 8.71283 5.59625 8.5C5.59625 8.28717 5.668 8.109 5.8115 7.9655C5.95517 7.82183 6.13342 7.75 6.34625 7.75H14.1173L12.1943 5.827C12.0558 5.6885 11.9849 5.51958 11.9818 5.32025C11.9786 5.12092 12.0494 4.94367 12.1943 4.7885C12.3391 4.63333 12.5148 4.55317 12.7213 4.548C12.9276 4.543 13.1083 4.618 13.2635 4.773L16.3578 7.86725C16.5384 8.04808 16.6288 8.259 16.6288 8.5C16.6288 8.741 16.5384 8.95192 16.3578 9.13275L13.2635 12.227C13.1148 12.3757 12.9383 12.449 12.7338 12.447C12.5293 12.4452 12.3494 12.3667 12.1943 12.2115C12.0494 12.0563 11.9796 11.8782 11.9848 11.677C11.9898 11.4757 12.0648 11.3026 12.2098 11.1578L14.1173 9.25Z" fill="#A6A6A6"/>
</svg>
