<svg width="25" height="25" viewBox="0 0 25 25" fill="none" xmlns="http://www.w3.org/2000/svg">
<path d="M12.5 21.5C12.2167 21.5 11.9792 21.4042 11.7875 21.2125C11.5958 21.0208 11.5 20.7833 11.5 20.5V13.5H4.5C4.21667 13.5 3.97917 13.4042 3.7875 13.2125C3.59583 13.0208 3.5 12.7833 3.5 12.5C3.5 12.2167 3.59583 11.9792 3.7875 11.7875C3.97917 11.5958 4.21667 11.5 4.5 11.5H11.5V4.5C11.5 4.21667 11.5958 3.97917 11.7875 3.7875C11.9792 3.59583 12.2167 3.5 12.5 3.5C12.7833 3.5 13.0208 3.59583 13.2125 3.7875C13.4042 3.97917 13.5 4.21667 13.5 4.5V11.5H20.5C20.7833 11.5 21.0208 11.5958 21.2125 11.7875C21.4042 11.9792 21.5 12.2167 21.5 12.5C21.5 12.7833 21.4042 13.0208 21.2125 13.2125C21.0208 13.4042 20.7833 13.5 20.5 13.5H13.5V20.5C13.5 20.7833 13.4042 21.0208 13.2125 21.2125C13.0208 21.4042 12.7833 21.5 12.5 21.5Z" fill="#D6D6D6"/>
</svg>
